HIERARCHY
ROOT Hips
{
	OFFSET 0.00 0.00 0.00
	CHANNELS 6 Xposition Yposition Zposition Xrotation Yrotation Zrotation
	JOINT Spine
	{
		OFFSET 0.00000 1.72418 2.58627
		CHANNELS 3 Xrotation Yrotation Zrotation
		JOINT Spine1
		{
			OFFSET 0.00000 0.59880 3.39597
			CHANNELS 3 Xrotation Yrotation Zrotation
			JOINT Spine2
			{
				OFFSET 0.00000 0.30055 3.43524
				CHANNELS 3 Xrotation Yrotation Zrotation
				JOINT Spine3
				{
					OFFSET 0.00000 0.00000 3.44836
					CHANNELS 3 Xrotation Yrotation Zrotation
					JOINT Neck
					{
						OFFSET 0.00000 -1.29313 9.05195
						CHANNELS 3 Xrotation Yrotation Zrotation
						JOINT Head
						{
							OFFSET 0.00000 -0.82335 4.66946
							CHANNELS 3 Xrotation Yrotation Zrotation
							End Site
							{
								OFFSET 0.00000 0.00001 5.58203
							}
						}
					}
					JOINT RightShoulder
					{
						OFFSET -1.18828 -1.98046 6.41673
						CHANNELS 3 Xrotation Yrotation Zrotation
						JOINT RightArm
						{
							OFFSET -5.90180 0.00000 0.00000
							CHANNELS 3 Xrotation Yrotation Zrotation
							JOINT RightForeArm
							{
								OFFSET -11.45951 0.00000 0.00000
								CHANNELS 3 Xrotation Yrotation Zrotation
								JOINT RightHand
								{
									OFFSET -10.63451 0.00000 0.00000
									CHANNELS 3 Xrotation Yrotation Zrotation
									JOINT RightHandEnd
									{
										OFFSET -2.86944 0.00000 0.00000
										CHANNELS 3 Xrotation Yrotation Zrotation
										End Site
										{
											OFFSET -2.86944 0.00000 0.00000
										}
									}
									JOINT RightHandThumb1
									{
										OFFSET -1.14778 -1.91296 -0.76518
										CHANNELS 3 Yrotation Xrotation Zrotation
										End Site
										{
											OFFSET -2.77167 -0.74267 0.00000
										}
									}
								}
							}
						}
					}
					JOINT LeftShoulder
					{
						OFFSET 1.18828 -1.98046 6.41673
						CHANNELS 3 Xrotation Yrotation Zrotation
						JOINT LeftArm
						{
							OFFSET 5.90180 0.00000 0.00000
							CHANNELS 3 Xrotation Yrotation Zrotation
							JOINT LeftForeArm
							{
								OFFSET 11.45951 0.00000 0.00000
								CHANNELS 3 Xrotation Yrotation Zrotation
								JOINT LeftHand
								{
									OFFSET 10.63451 0.00000 0.00000
									CHANNELS 3 Xrotation Yrotation Zrotation
									JOINT LeftHandEnd
									{
										OFFSET 2.86944 0.00000 0.00000
										CHANNELS 3 Xrotation Yrotation Zrotation
										End Site
										{
											OFFSET 2.86944 0.00000 0.00000
										}
									}
									JOINT LeftHandThumb1
									{
										OFFSET 1.14778 -1.91296 -0.76518
										CHANNELS 3 Yrotation Xrotation Zrotation
										End Site
										{
											OFFSET 2.77167 -0.74267 0.00000
										}
									}
								}
							}
						}
					}
				}
			}
		}
	}
	JOINT RightUpLeg
	{
		OFFSET -3.52524 0.00000 -1.02984
		CHANNELS 3 Xrotation Yrotation Zrotation
		JOINT RightLeg
		{
			OFFSET 0.00001 0.00000 -17.80965
			CHANNELS 3 Xrotation Yrotation Zrotation
			JOINT RightFoot
			{
				OFFSET 0.00001 0.00000 -17.00908
				CHANNELS 3 Xrotation Yrotation Zrotation
				JOINT RightToeBase
				{
					OFFSET 0.00000 -5.55853 -2.02314
					CHANNELS 3 Xrotation Yrotation Zrotation
					End Site
					{
						OFFSET 0.00000 -2.85188 -0.00000
					}
				}
			}
		}
	}
	JOINT LeftUpLeg
	{
		OFFSET 3.52524 0.00000 -1.02984
		CHANNELS 3 Xrotation Yrotation Zrotation
		JOINT LeftLeg
		{
			OFFSET 0.00001 0.00000 -17.80965
			CHANNELS 3 Xrotation Yrotation Zrotation
			JOINT LeftFoot
			{
				OFFSET 0.00001 0.00000 -17.00908
				CHANNELS 3 Xrotation Yrotation Zrotation
				JOINT LeftToeBase
				{
					OFFSET 0.00000 -5.55853 -2.02314
					CHANNELS 3 Xrotation Yrotation Zrotation
					End Site
					{
						OFFSET 0.00000 -2.85188 -0.00000
					}
				}
			}
		}
	}
}
MOTION
Frames: 16
Frame Time: 0.008342
 2.1065 -99.7098 36.4680 0.0501 1.0206 -178.1506 0.6588 -0.0201 -0.4565 0.3861 -0.0540 -0.0806 -0.0083 -0.2043 0.2628 -0.1307 0.0846 -0.0237 -0.3284 0.7356 -0.4228 -1.4599 -0.1171 -1.6911 1.6543 8.2336 0.5906 -6.3406 0.3008 -1.3913 0.0000 0.0000 13.0519 -9.5415 18.9827 -3.2136 0.0000 -0.0000 0.0000 -0.0000 -0.0000 -0.0000 10.5057 -5.7547 -0.0268 -15.0008 1.2883 10.7068 -0.0000 -0.0000 -18.4693 -10.6734 -14.1317 -1.1948 -0.0000 -0.0000 -0.0000 0.0000 0.0000 0.0000 -2.6119 1.6523 -27.8247 15.7936 0.0000 0.0000 -15.2842 -2.6965 7.6104 -6.6078 0.0000 -0.0000 -2.2283 -3.0571 8.7840 13.3014 0.0000 0.0000 -11.2710 4.4908 2.0475 0.3755 0.0000 0.0000
 2.0935 -99.7058 36.4674 0.0415 1.0192 -178.1754 0.6630 0.0082 -0.4585 0.3893 -0.0581 -0.0824 -0.0402 -0.2190 0.2669 -0.1396 0.0783 -0.0165 -0.3198 0.7537 -0.4232 -1.4454 -0.1163 -1.6863 1.6204 8.2997 0.5979 -6.3074 0.3197 -1.4030 0.0000 0.0000 12.9865 -9.5567 19.0136 -3.2148 -0.0000 0.0000 -0.0000 -0.0000 -0.0000 -0.0000 10.4716 -5.8087 -0.0295 -15.0610 1.2556 10.7130 -0.0000 -0.0000 -18.4790 -10.6449 -14.2024 -1.1379 0.0000 -0.0000 -0.0000 -0.0000 0.0000 0.0000 -2.6730 1.6715 -27.8212 15.8790 0.0000 0.0000 -15.2872 -2.6739 7.4579 -6.5260 0.0000 -0.0000 -2.2241 -3.0396 8.7895 13.2998 0.0000 0.0000 -11.2888 4.4788 2.0509 0.3712 0.0000 0.0000
 2.0771 -99.7012 36.4673 0.0302 1.0045 -178.2127 0.6683 0.0290 -0.4617 0.3956 -0.0606 -0.0823 -0.0807 -0.2397 0.2739 -0.1510 0.0718 -0.0074 -0.3118 0.7754 -0.4210 -1.4279 -0.1158 -1.6787 1.5708 8.3778 0.6102 -6.2684 0.3470 -1.4175 0.0000 0.0000 12.9037 -9.5707 19.0510 -3.2179 0.0000 0.0000 0.0000 -0.0000 -0.0000 0.0000 10.4223 -5.8722 -0.0330 -15.1354 1.2115 10.7233 -0.0000 -0.0000 -18.4967 -10.6070 -14.2896 -1.0737 -0.0000 0.0000 -0.0000 -0.0000 -0.0000 0.0000 -2.7734 1.6867 -27.7590 16.0264 0.0000 0.0000 -15.2782 -2.6255 7.2289 -6.4218 0.0000 -0.0000 -2.2202 -3.0309 8.8007 13.2994 0.0000 0.0000 -11.3121 4.4632 2.0557 0.3664 0.0000 0.0000
 2.0577 -99.6962 36.4679 0.0146 0.9745 -178.2616 0.6741 0.0419 -0.4661 0.4032 -0.0634 -0.0830 -0.1281 -0.2642 0.2850 -0.1646 0.0629 0.0038 -0.3061 0.8015 -0.4154 -1.4081 -0.1166 -1.6685 1.5049 8.4670 0.6280 -6.2274 0.3810 -1.4338 0.0000 0.0000 12.8051 -9.5837 19.0944 -3.2242 0.0000 -0.0000 -0.0000 -0.0000 0.0000 0.0000 10.3590 -5.9409 -0.0369 -15.2227 1.1552 10.7374 -0.0000 -0.0000 -18.5232 -10.5600 -14.3905 -1.0063 0.0000 -0.0000 -0.0000 0.0000 -0.0000 -0.0000 -2.9181 1.6953 -27.6368 16.2405 0.0000 0.0000 -15.2551 -2.5476 6.9198 -6.2937 0.0000 -0.0000 -2.2197 -3.0337 8.8176 13.3020 0.0000 0.0000 -11.3409 4.4444 2.0616 0.3606 0.0000 0.0000
 2.0357 -99.6906 36.4692 -0.0015 0.9295 -178.3208 0.6838 0.0454 -0.4718 0.4121 -0.0651 -0.0834 -0.1809 -0.2925 0.2982 -0.1800 0.0525 0.0163 -0.3031 0.8305 -0.4060 -1.3865 -0.1186 -1.6546 1.4264 8.5640 0.6512 -6.1883 0.4199 -1.4509 0.0000 0.0000 12.6934 -9.5911 19.1404 -3.2335 0.0000 0.0000 0.0000 0.0000 -0.0000 -0.0000 10.2848 -6.0139 -0.0407 -15.3201 1.0893 10.7560 -0.0000 -0.0000 -18.5587 -10.5038 -14.5021 -0.9400 -0.0000 -0.0000 0.0000 0.0000 -0.0000 -0.0000 -3.1023 1.6965 -27.4648 16.5196 0.0000 0.0000 -15.2167 -2.4398 6.5378 -6.1396 0.0000 -0.0000 -2.2183 -3.0482 8.8392 13.3062 0.0000 0.0000 -11.3740 4.4225 2.0692 0.3545 0.0000 0.0000
 2.0118 -99.6847 36.4712 -0.0186 0.8715 -178.3875 0.6962 0.0412 -0.4785 0.4221 -0.0673 -0.0843 -0.2372 -0.3227 0.3123 -0.1967 0.0407 0.0295 -0.3040 0.8603 -0.3932 -1.3627 -0.1216 -1.6365 1.3378 8.6648 0.6796 -6.1540 0.4617 -1.4684 0.0000 0.0000 12.5739 -9.5938 19.1874 -3.2489 0.0000 0.0000 0.0000 0.0000 -0.0000 -0.0000 10.2032 -6.0885 -0.0441 -15.4235 1.0157 10.7783 -0.0000 -0.0000 -18.6025 -10.4403 -14.6218 -0.8790 0.0000 0.0000 0.0000 -0.0000 -0.0000 0.0000 -3.3234 1.6900 -27.2574 16.8576 0.0000 0.0000 -15.1633 -2.3035 6.0929 -5.9590 0.0000 -0.0000 -2.2171 -3.0731 8.8643 13.3119 0.0000 0.0000 -11.4095 4.3984 2.0782 0.3474 0.0000 0.0000
 1.9866 -99.6785 36.4739 -0.0358 0.8035 -178.4580 0.7108 0.0308 -0.4862 0.4329 -0.0686 -0.0851 -0.2942 -0.3544 0.3250 -0.2135 0.0281 0.0424 -0.3097 0.8888 -0.3771 -1.3380 -0.1254 -1.6145 1.2442 8.7657 0.7123 -6.1288 0.5026 -1.4852 0.0000 0.0000 12.4514 -9.5931 19.2324 -3.2681 -0.0000 -0.0000 -0.0000 -0.0000 -0.0000 -0.0000 10.1186 -6.1631 -0.0462 -15.5298 0.9383 10.8040 -0.0000 -0.0000 -18.6538 -10.3720 -14.7456 -0.8277 -0.0000 -0.0000 0.0000 -0.0000 0.0000 0.0000 -3.5739 1.6768 -27.0354 17.2427 0.0000 0.0000 -15.0964 -2.1427 5.6014 -5.7523 0.0000 -0.0000 -2.2153 -3.1062 8.8903 13.3177 0.0000 0.0000 -11.4456 4.3725 2.0893 0.3397 0.0000 0.0000
 1.9610 -99.6720 36.4772 -0.0524 0.7299 -178.5281 0.7268 0.0170 -0.4948 0.4439 -0.0692 -0.0861 -0.3498 -0.3862 0.3341 -0.2301 0.0154 0.0542 -0.3200 0.9143 -0.3584 -1.3127 -0.1299 -1.5880 1.1508 8.8631 0.7473 -6.1143 0.5391 -1.5000 0.0000 0.0000 12.3309 -9.5885 19.2747 -3.2925 -0.0000 0.0000 -0.0000 0.0000 0.0000 0.0000 10.0362 -6.2361 -0.0472 -15.6364 0.8605 10.8325 -0.0000 -0.0000 -18.7108 -10.2985 -14.8708 -0.7886 -0.0000 -0.0000 0.0000 0.0000 0.0000 0.0000 -3.8436 1.6585 -26.8219 17.6588 0.0000 0.0000 -15.0190 -1.9632 5.0827 -5.5206 0.0000 -0.0000 -2.2120 -3.1437 8.9149 13.3222 0.0000 0.0000 -11.4798 4.3457 2.1025 0.3314 0.0000 0.0000
 1.9356 -99.6651 36.4809 -0.0675 0.6550 -178.5935 0.7433 0.0028 -0.5041 0.4549 -0.0693 -0.0872 -0.4014 -0.4166 0.3380 -0.2455 0.0033 0.0640 -0.3346 0.9347 -0.3385 -1.2882 -0.1349 -1.5577 1.0631 8.9539 0.7831 -6.1114 0.5676 -1.5126 0.0000 0.0000 12.2181 -9.5811 19.3134 -3.3210 -0.0000 0.0000 -0.0000 0.0000 -0.0000 -0.0000 9.9605 -6.3064 -0.0470 -15.7418 0.7857 10.8625 -0.0000 -0.0000 -18.7723 -10.2208 -14.9939 -0.7625 -0.0000 -0.0000 0.0000 -0.0000 0.0000 0.0000 -4.1201 1.6369 -26.6395 18.0862 0.0000 0.0000 -14.9351 -1.7711 4.5576 -5.2670 0.0000 -0.0000 -2.2063 -3.1821 8.9357 13.3236 0.0000 0.0000 -11.5102 4.3187 2.1172 0.3218 0.0000 0.0000
 1.9109 -99.6576 36.4849 -0.0802 0.5830 -178.6501 0.7593 -0.0093 -0.5141 0.4652 -0.0687 -0.0885 -0.4467 -0.4442 0.3352 -0.2590 -0.0075 0.0713 -0.3527 0.9490 -0.3187 -1.2652 -0.1404 -1.5245 0.9861 9.0358 0.8171 -6.1190 0.5853 -1.5226 0.0000 0.0000 12.1171 -9.5731 19.3478 -3.3515 0.0000 -0.0000 -0.0000 0.0000 0.0000 -0.0000 9.8958 -6.3733 -0.0462 -15.8452 0.7175 10.8928 -0.0000 -0.0000 -18.8360 -10.1386 -15.1133 -0.7489 0.0000 0.0000 -0.0000 0.0000 0.0000 0.0000 -4.3897 1.6145 -26.5076 18.5035 0.0000 0.0000 -14.8495 -1.5734 4.0465 -4.9953 0.0000 -0.0000 -2.1964 -3.2175 8.9509 13.3197 0.0000 0.0000 -11.5346 4.2923 2.1332 0.3109 0.0000 0.0000
 1.8874 -99.6495 36.4891 -0.0889 0.5178 -178.6947 0.7749 -0.0175 -0.5246 0.4742 -0.0669 -0.0899 -0.4843 -0.4681 0.3250 -0.2702 -0.0164 0.0756 -0.3727 0.9560 -0.3004 -1.2447 -0.1455 -1.4895 0.9233 9.1070 0.8473 -6.1337 0.5896 -1.5292 0.0000 0.0000 12.0313 -9.5636 19.3794 -3.3853 0.0000 0.0000 0.0000 -0.0000 0.0000 0.0000 9.8441 -6.4363 -0.0453 -15.9450 0.6582 10.9218 -0.0000 -0.0000 -18.9002 -10.0555 -15.2274 -0.7480 -0.0000 -0.0000 0.0000 0.0000 -0.0000 0.0000 -4.6377 1.5929 -26.4396 18.8896 0.0000 0.0000 -14.7675 -1.3765 3.5674 -4.7106 0.0000 -0.0000 -2.1797 -3.2465 8.9594 13.3082 0.0000 0.0000 -11.5514 4.2672 2.1492 0.2994 0.0000 0.0000
 1.8654 -99.6404 36.4935 -0.0938 0.4622 -178.7252 0.7883 -0.0203 -0.5356 0.4818 -0.0644 -0.0916 -0.5133 -0.4868 0.3079 -0.2785 -0.0232 0.0766 -0.3932 0.9561 -0.2849 -1.2274 -0.1508 -1.4541 0.8776 9.1667 0.8715 -6.1518 0.5799 -1.5329 0.0000 0.0000 11.9630 -9.5556 19.4069 -3.4186 -0.0000 0.0000 0.0000 0.0000 -0.0000 0.0000 9.8069 -6.4950 -0.0450 -16.0426 0.6097 10.9467 -0.0000 -0.0000 -18.9629 -9.9699 -15.3353 -0.7561 0.0000 0.0000 0.0000 -0.0000 0.0000 0.0000 -4.8527 1.5736 -26.4417 19.2255 0.0000 0.0000 -14.6943 -1.1862 3.1354 -4.4187 0.0000 -0.0000 -2.1557 -3.2666 8.9614 13.2879 0.0000 0.0000 -11.5599 4.2441 2.1640 0.2864 0.0000 0.0000
 1.8446 -99.6302 36.4978 -0.0933 0.4185 -178.7415 0.7999 -0.0171 -0.5461 0.4877 -0.0610 -0.0931 -0.5333 -0.5006 0.2843 -0.2842 -0.0260 0.0749 -0.4118 0.9499 -0.2735 -1.2140 -0.1561 -1.4201 0.8493 9.2151 0.8882 -6.1670 0.5556 -1.5342 0.0000 0.0000 11.9129 -9.5474 19.4310 -3.4518 -0.0000 0.0000 -0.0000 -0.0000 -0.0000 -0.0000 9.7845 -6.5484 -0.0460 -16.1390 0.5711 10.9642 -0.0000 -0.0000 -19.0221 -9.8807 -15.4361 -0.7704 0.0000 0.0000 0.0000 -0.0000 0.0000 -0.0000 -5.0234 1.5587 -26.5143 19.4963 0.0000 0.0000 -14.6345 -1.0086 2.7634 -4.1268 0.0000 -0.0000 -2.1215 -3.2754 8.9584 13.2564 0.0000 0.0000 -11.5594 4.2231 2.1759 0.2722 0.0000 0.0000
 1.8253 -99.6189 36.5019 -0.0905 0.3869 -178.7439 0.8063 -0.0073 -0.5565 0.4920 -0.0590 -0.0951 -0.5450 -0.5066 0.2581 -0.2871 -0.0270 0.0699 -0.4273 0.9394 -0.2667 -1.2045 -0.1623 -1.3894 0.8379 9.2525 0.8961 -6.1735 0.5189 -1.5331 0.0000 0.0000 11.8801 -9.5419 19.4515 -3.4818 -0.0000 0.0000 -0.0000 -0.0000 -0.0000 -0.0000 9.7750 -6.5963 -0.0487 -16.2357 0.5432 10.9709 -0.0000 -0.0000 -19.0767 -9.7901 -15.5309 -0.7877 0.0000 -0.0000 -0.0000 0.0000 0.0000 0.0000 -5.1459 1.5473 -26.6470 19.6908 0.0000 0.0000 -14.5911 -0.8479 2.4560 -3.8415 0.0000 -0.0000 -2.0803 -3.2731 8.9525 13.2151 0.0000 0.0000 -11.5509 4.2048 2.1829 0.2567 0.0000 0.0000
 1.8069 -99.6062 36.5057 -0.0864 0.3687 -178.7355 0.8062 0.0092 -0.5658 0.4948 -0.0578 -0.0959 -0.5494 -0.5081 0.2304 -0.2876 -0.0227 0.0620 -0.4375 0.9254 -0.2650 -1.1985 -0.1687 -1.3630 0.8410 9.2793 0.8955 -6.1654 0.4724 -1.5302 0.0000 0.0000 11.8626 -9.5369 19.4673 -3.5074 -0.0000 0.0000 0.0000 -0.0000 -0.0000 -0.0000 9.7760 -6.6374 -0.0532 -16.3327 0.5229 10.9637 -0.0000 -0.0000 -19.1259 -9.6989 -15.6185 -0.8054 0.0000 0.0000 -0.0000 -0.0000 0.0000 -0.0000 -5.2182 1.5413 -26.8280 19.8051 0.0000 0.0000 -14.5663 -0.7091 2.2195 -3.5686 0.0000 -0.0000 -2.0324 -3.2581 8.9479 13.1633 0.0000 0.0000 -11.5353 4.1891 2.1837 0.2419 0.0000 0.0000
 1.7890 -99.5924 36.5091 -0.0826 0.3636 -178.7197 0.7999 0.0278 -0.5731 0.4945 -0.0539 -0.0976 -0.5476 -0.5016 0.2044 -0.2862 -0.0174 0.0540 -0.4414 0.9113 -0.2682 -1.1952 -0.1767 -1.3431 0.8557 9.2993 0.8852 -6.1396 0.4167 -1.5252 0.0000 0.0000 11.8573 -9.5325 19.4790 -3.5277 -0.0000 0.0000 -0.0000 0.0000 -0.0000 0.0000 9.7845 -6.6708 -0.0599 -16.4334 0.5086 10.9395 -0.0000 -0.0000 -19.1700 -9.6058 -15.6985 -0.8211 0.0000 0.0000 0.0000 0.0000 -0.0000 0.0000 -5.2413 1.5409 -27.0390 19.8394 0.0000 0.0000 -14.5605 -0.5955 2.0533 -3.3146 0.0000 -0.0000 -1.9795 -3.2303 8.9467 13.1030 0.0000 0.0000 -11.5147 4.1756 2.1781 0.2262 0.0000 0.0000
